<svg width="262" height="63" viewBox="0 0 262 63" fill="none" xmlns="http://www.w3.org/2000/svg">
<path d="M2.488 46.664C1.76267 46.408 1.208 45.96 0.824 45.32C0.44 44.68 0.248 43.9547 0.248 43.144C0.248 42.12 0.546667 41.1387 1.144 40.2C1.74133 39.2187 2.53067 38.5573 3.512 38.216L32.056 28.296C32.568 28.1253 33.08 28.04 33.592 28.04C34.488 28.04 35.192 28.3387 35.704 28.936C36.216 29.5333 36.472 30.2587 36.472 31.112C36.472 31.9227 36.216 32.6907 35.704 33.416C35.2347 34.0987 34.5093 34.6107 33.528 34.952L11.128 42.504L31.608 50.12C32.3333 50.376 32.888 50.7813 33.272 51.336C33.656 51.8907 33.848 52.488 33.848 53.128C33.848 54.1093 33.4853 55.0053 32.76 55.816C32.0773 56.584 31.2027 56.968 30.136 56.968C29.6667 56.968 29.1547 56.8613 28.6 56.648L2.488 46.664ZM64.7725 54.024C65.7112 53.9813 66.4152 54.3227 66.8845 55.048C67.3965 55.7307 67.6525 56.584 67.6525 57.608C67.6525 58.6747 67.3965 59.6133 66.8845 60.424C66.4152 61.2347 65.7538 61.64 64.9005 61.64C63.3645 61.64 61.9138 61.6187 60.5485 61.576C59.2258 61.5333 58.0525 61.4907 57.0285 61.448C53.1032 61.2773 50.3298 61.192 48.7085 61.192C48.1538 61.192 47.3432 61.384 46.2765 61.768C44.9112 62.1947 43.9725 62.408 43.4605 62.408C41.1992 62.408 40.0685 60.9573 40.0685 58.056C40.0685 56.0933 40.7725 53.8747 42.1805 51.4C43.5885 48.8827 45.4232 46.4507 47.6845 44.104C49.9458 41.7573 52.2925 39.7947 54.7245 38.216L45.7005 38.472C44.7618 38.5147 44.0365 38.1947 43.5245 37.512C43.0552 36.7867 42.8205 35.9333 42.8205 34.952C42.8205 33.928 43.0552 33.032 43.5245 32.264C44.0365 31.4533 44.7192 31.048 45.5725 31.048C47.4498 31.048 49.7752 31.1973 52.5485 31.496C53.0178 31.5387 54.0205 31.624 55.5565 31.752C57.1352 31.88 58.5858 31.944 59.9085 31.944C60.3352 31.944 61.1458 31.7733 62.3405 31.432C62.5538 31.3893 62.9592 31.2827 63.5565 31.112C64.1965 30.9413 64.7298 30.856 65.1565 30.856C65.8392 30.856 66.3938 31.1547 66.8205 31.752C67.2898 32.3493 67.5245 33.2667 67.5245 34.504C67.5245 35.8693 67.1832 36.9573 66.5005 37.768C65.8605 38.5787 64.8792 39.304 63.5565 39.944C62.0632 40.6267 60.3138 41.8 58.3085 43.464C56.3032 45.128 54.4045 46.984 52.6125 49.032C50.8205 51.0373 49.4978 52.936 48.6445 54.728L64.7725 54.024ZM77.488 61.32C75.6107 61.32 74.1813 60.808 73.2 59.784C72.2613 58.76 71.792 57.416 71.792 55.752C71.792 53.832 72.3253 52.296 73.392 51.144C74.5013 49.992 76.0373 49.416 78 49.416C79.8773 49.416 81.2853 49.8853 82.224 50.824C83.2053 51.72 83.696 53.064 83.696 54.856C83.696 56.8187 83.1413 58.3973 82.032 59.592C80.9227 60.744 79.408 61.32 77.488 61.32ZM125.237 46.728C125.791 46.728 126.218 46.984 126.517 47.496C126.858 48.008 127.029 48.712 127.029 49.608C127.029 51.3147 126.623 52.6373 125.812 53.576C124.063 55.7093 122.143 57.544 120.053 59.08C117.962 60.5733 115.893 61.32 113.845 61.32C110.602 61.32 108.127 59.4213 106.421 55.624C104.629 57.8853 103.05 59.4 101.685 60.168C100.362 60.936 98.8045 61.32 97.0125 61.32C94.4098 61.32 92.2552 60.36 90.5485 58.44C88.8845 56.4773 88.0525 53.9387 88.0525 50.824C88.0525 47.4107 88.7778 44.2533 90.2285 41.352C91.6792 38.408 93.6632 36.0187 96.1805 34.184C98.7405 32.3067 101.599 31.1973 104.757 30.856C105.567 22.5787 107.103 15.5173 109.365 9.672C111.669 3.784 114.677 0.839996 118.389 0.839996C120.223 0.839996 121.738 1.672 122.933 3.336C124.17 5 124.789 7.51733 124.789 10.888C124.789 15.6667 123.615 21.256 121.269 27.656C118.922 34.056 115.786 40.6267 111.861 47.368C112.031 49.8427 112.394 51.6133 112.949 52.68C113.546 53.7467 114.293 54.28 115.189 54.28C116.341 54.28 117.514 53.768 118.708 52.744C119.903 51.72 121.503 50.0133 123.509 47.624C124.021 47.0267 124.597 46.728 125.237 46.728ZM117.685 7.112C116.874 7.112 116.063 8.56266 115.253 11.464C114.442 14.3227 113.738 18.0773 113.141 22.728C112.586 27.3787 112.181 32.2427 111.925 37.32C116.703 26.9093 119.093 18.5467 119.093 12.232C119.093 10.6107 118.943 9.352 118.645 8.456C118.389 7.56 118.069 7.112 117.685 7.112ZM99.2525 54.856C100.063 54.856 100.874 54.536 101.685 53.896C102.495 53.2133 103.519 51.976 104.757 50.184C104.33 47.88 104.117 45.2987 104.117 42.44C104.117 41.416 104.159 39.752 104.245 37.448C101.898 38.1733 99.9352 39.752 98.3565 42.184C96.8205 44.5733 96.0525 47.24 96.0525 50.184C96.0525 53.2987 97.1192 54.856 99.2525 54.856ZM150.366 46.728C150.921 46.728 151.347 46.984 151.646 47.496C151.987 48.008 152.158 48.712 152.158 49.608C152.158 51.3147 151.753 52.6373 150.942 53.576C149.363 55.496 147.123 57.2667 144.222 58.888C141.363 60.5093 138.291 61.32 135.006 61.32C130.526 61.32 127.049 60.104 124.574 57.672C122.099 55.24 120.862 51.912 120.862 47.688C120.862 44.744 121.481 42.0133 122.718 39.496C123.955 36.936 125.662 34.9093 127.838 33.416C130.057 31.9227 132.553 31.176 135.326 31.176C137.801 31.176 139.785 31.9227 141.278 33.416C142.771 34.8667 143.518 36.8507 143.518 39.368C143.518 42.312 142.451 44.8507 140.318 46.984C138.227 49.0747 134.665 50.7387 129.63 51.976C130.697 53.9387 132.723 54.92 135.71 54.92C137.63 54.92 139.806 54.2587 142.238 52.936C144.713 51.5707 146.846 49.8 148.638 47.624C149.15 47.0267 149.726 46.728 150.366 46.728ZM134.238 37.448C132.659 37.448 131.315 38.3653 130.206 40.2C129.139 42.0347 128.606 44.2533 128.606 46.856V46.984C131.123 46.3867 133.107 45.4907 134.558 44.296C136.009 43.1013 136.734 41.7147 136.734 40.136C136.734 39.3253 136.499 38.6853 136.03 38.216C135.603 37.704 135.006 37.448 134.238 37.448ZM154.3 61.32C152.508 61.32 151.1 60.6587 150.076 59.336C149.052 57.9707 148.412 55.7947 148.156 52.808C147.644 46.8347 147.388 41.608 147.388 37.128V34.888C147.43 33.48 147.814 32.4987 148.54 31.944C149.265 31.3893 150.353 31.112 151.804 31.112C152.913 31.112 153.724 31.368 154.236 31.88C154.79 32.3493 155.068 33.16 155.068 34.312C155.068 39.2187 155.366 45.5973 155.964 53.448C157.798 50.2907 159.377 47.4107 160.7 44.808C162.065 42.1627 163.537 38.6853 165.116 34.376C165.585 33.096 166.204 32.2427 166.972 31.816C167.74 31.3467 168.7 31.112 169.852 31.112C172.198 31.112 173.372 31.8587 173.372 33.352C173.372 33.864 173.201 34.568 172.86 35.464C169.404 43.528 166.14 50.0347 163.068 54.984C161.574 57.416 160.145 59.08 158.78 59.976C157.414 60.872 155.921 61.32 154.3 61.32ZM192.288 61.32C191.307 61.32 190.432 60.9787 189.664 60.296C188.939 59.5707 188.576 58.632 188.576 57.48C188.576 56.5413 188.875 55.5173 189.472 54.408L216.288 4.04C216.8 3.05866 217.376 2.33333 218.016 1.864C218.699 1.39466 219.381 1.16 220.064 1.16C221.045 1.16 221.877 1.56533 222.56 2.376C223.285 3.144 223.648 4.104 223.648 5.256C223.648 6.19466 223.413 7.06933 222.944 7.88L195.552 59.272C195.168 59.9547 194.677 60.4667 194.08 60.808C193.525 61.1493 192.928 61.32 192.288 61.32ZM229.267 56.648C228.755 56.8187 228.243 56.904 227.731 56.904C226.835 56.904 226.131 56.6053 225.619 56.008C225.107 55.4107 224.851 54.6853 224.851 53.832C224.851 53.0213 225.085 52.2747 225.555 51.592C226.067 50.8667 226.813 50.3333 227.795 49.992L250.195 42.44L229.715 34.824C228.989 34.568 228.435 34.1627 228.051 33.608C227.667 33.0533 227.475 32.456 227.475 31.816C227.475 30.8347 227.816 29.96 228.499 29.192C229.224 28.3813 230.12 27.976 231.187 27.976C231.656 27.976 232.168 28.0827 232.723 28.296L258.835 38.28C259.56 38.536 260.115 38.984 260.499 39.624C260.883 40.264 261.075 40.9893 261.075 41.8C261.075 42.824 260.776 43.8267 260.179 44.808C259.581 45.7467 258.792 46.3867 257.811 46.728L229.267 56.648Z" fill="white"/>
</svg>
